<svg xmlns="http://www.w3.org/2000/svg" viewBox="0 0 152 51" preserveAspectRatio="xMidYMid meet"><defs><style>.cls-1{fill:#404040;}</style></defs><title>City of Denton Type Stacked</title><g id="Tablet"><path class="cls-1" d="M35.16,0a8.34,8.34,0,0,1,5.9,2.13l-1.12,1.7a7.39,7.39,0,0,0-4.68-1.77,5.89,5.89,0,0,0-6,6.19c0,3.46,2.41,6.4,6,6.4a7.33,7.33,0,0,0,5-2.11l1.22,1.63a8.68,8.68,0,0,1-6.29,2.57,8.15,8.15,0,0,1-8.28-8.47A8.09,8.09,0,0,1,35.16,0Z"/><path class="cls-1" d="M44.08.28h2.27v16.2H44.08Z"/><path class="cls-1" d="M54,2.25H48.47v-2H61.84v2H56.29V16.47H54Z"/><path class="cls-1" d="M68.44,9.61,63,.28h2.57l3,5.32c.5.89,1,2,1,2h0s.48-1.12,1-2l3-5.32h2.57L70.71,9.61v6.86H68.44Z"/><path class="cls-1" d="M91.64,0a8.16,8.16,0,0,1,8.31,8.26,8.32,8.32,0,1,1-16.63,0A8.18,8.18,0,0,1,91.64,0Zm0,14.66a6.12,6.12,0,0,0,6-6.4,6,6,0,1,0-12,0A6.14,6.14,0,0,0,91.64,14.66Z"/><path class="cls-1" d="M103.06.28H112v2h-6.65V7.57H111v2h-5.67v6.93h-2.27Z"/><path class="cls-1" d="M0,22.48H8.63c7.64,0,12.53,4.45,12.53,12.09S16.27,46.77,8.63,46.77H0ZM8.39,41.67c4.11,0,6.62-2.45,6.62-7.1s-2.62-7-6.62-7H5.94v14.1Z"/><path class="cls-1" d="M24.93,22.48H40.15v5.1H30.87V32h7.41v5.09H30.87v4.59h9.75v5.09H24.93Z"/><path class="cls-1" d="M44.66,22.48h6L57.4,33.82a43.52,43.52,0,0,1,2,4.14h.07s-.27-2.62-.27-4.14V22.48h5.94V46.77h-6L52.44,35.46a43.46,43.46,0,0,1-2-4.14h-.07s.27,2.62.27,4.14V46.77H44.66Z"/><path class="cls-1" d="M74.95,27.58H67.57v-5.1H88.26v5.1H80.89V46.77H74.95Z"/><path class="cls-1" d="M101.72,22.07a12.28,12.28,0,0,1,12.7,12.4,12.7,12.7,0,0,1-25.41,0A12.28,12.28,0,0,1,101.72,22.07Zm0,19.67c3.63,0,6.56-3.12,6.56-7.27a6.57,6.57,0,1,0-13.11,0C95.16,38.61,98.08,41.74,101.72,41.74Z"/><path class="cls-1" d="M118.13,22.48h6l6.73,11.34a43.52,43.52,0,0,1,2,4.14H133s-.27-2.62-.27-4.14V22.48h5.94V46.77h-6l-6.76-11.31a43.46,43.46,0,0,1-2-4.14h-.07s.27,2.62.27,4.14V46.77h-5.94Z"/></g></svg>